<?xml version="1.0" encoding="iso-8859-1"?>
<!-- Generator: Adobe Illustrator 19.0.0, SVG Export Plug-In . SVG Version: 6.00 Build 0)  -->
<svg version="1.1" id="Layer_1" xmlns="http://www.w3.org/2000/svg" xmlns:xlink="http://www.w3.org/1999/xlink" x="0px" y="0px"
	 viewBox="0 0 512 512" style="enable-background:new 0 0 512 512;" xml:space="preserve">
<g>
	<g>
		<path d="M378.397,0H133.603c-10.083,0-18.031,8.782-18.031,18.867v143.929h280.854V18.867C396.427,8.782,388.48,0,378.397,0z
			 M173.981,91.961c0,6.864-5.564,12.427-12.427,12.427s-12.427-5.564-12.427-12.427V54.68c0-6.864,5.564-12.427,12.427-12.427
			s12.427,5.564,12.427,12.427V91.961z"/>
	</g>
</g>
<g>
	<g>
		<path d="M115.573,488.388v4.745c0,10.085,7.947,18.867,18.031,18.867h244.792c10.083,0,18.031-8.782,18.031-18.867v-4.745H115.573
			z"/>
	</g>
</g>
<g>
	<g>
		<path d="M115.573,187.651v275.883h280.854V187.651H115.573z M173.981,335.534c0,6.864-5.564,12.427-12.427,12.427
			s-12.427-5.564-12.427-12.427v-96.932c0-6.864,5.564-12.427,12.427-12.427s12.427,5.564,12.427,12.427V335.534z"/>
	</g>
</g>
<g>
</g>
<g>
</g>
<g>
</g>
<g>
</g>
<g>
</g>
<g>
</g>
<g>
</g>
<g>
</g>
<g>
</g>
<g>
</g>
<g>
</g>
<g>
</g>
<g>
</g>
<g>
</g>
<g>
</g>
</svg>
