<?xml version='1.0' encoding='utf-8'?>
<!DOCTYPE svg PUBLIC '-//W3C//DTD SVG 1.1//EN' 'http://www.w3.org/Graphics/SVG/1.1/DTD/svg11.dtd'>
<svg version="1.1" xmlns="http://www.w3.org/2000/svg" viewBox="0 0 512 512" xmlns:xlink="http://www.w3.org/1999/xlink" enable-background="new 0 0 512 512">
  <g>
    <g>
      <path d="M480.6,11H31.4C20.1,11,11,20.1,11,31.4v347.4c0,11.3,9.1,20.4,20.4,20.4h449.2c11.3,0,20.4-9.1,20.4-20.4V31.4    C501,20.1,491.9,11,480.6,11L480.6,11z"/>
      <path d="m353.3,460.2h-76.9v-24h-40.8v24h-76.9c-11.3,0-20.4,9.1-20.4,20.4 0,11.3 9.1,20.4 20.4,20.4h194.6c11.3,0 20.4-9.1 20.4-20.4 5.68434e-14-11.3-9.1-20.4-20.4-20.4z"/>
    </g>
  </g>
</svg>
